<svg id="Layer_1" data-name="Layer 1" xmlns="http://www.w3.org/2000/svg" viewBox="0 0 846.18 359.6"><defs><style>.cls-1{fill:#f46281;}.cls-2{fill:#5957ad;}.cls-3{fill:#0bd3f4;}.cls-4{fill:#19d886;}.cls-5{fill:#f4c606;}.cls-6{fill:#e053e0;}.cls-7{fill:#1f9cdb;}.cls-8{fill:#7cdb49;}.cls-9{fill:#24d3d3;}</style></defs><path class="cls-1" d="M128.08,237.89a14.59,14.59,0,0,1-7.33-2L60.26,201a14.69,14.69,0,0,1-7.33-12.69V118.47a14.69,14.69,0,0,1,7.33-12.69l49.42-28.54,1.5,2.6L61.76,108.38a11.67,11.67,0,0,0-5.83,10.09v69.85a11.68,11.68,0,0,0,5.83,10.09l60.49,34.92a11.66,11.66,0,0,0,11.65,0l12-6.94a14.74,14.74,0,0,1,12.91-.86l14.28,5.89,2-15.32a14.77,14.77,0,0,1,7.2-10.75l12-6.94a11.69,11.69,0,0,0,5.82-10.09V118.47a11.68,11.68,0,0,0-5.82-10.09L145,79.84l1.5-2.6,49.43,28.54a14.71,14.71,0,0,1,7.32,12.69v69.85A14.71,14.71,0,0,1,195.9,201l-12,6.94a11.75,11.75,0,0,0-5.73,8.55l-2.56,19.17-17.89-7.37a11.73,11.73,0,0,0-10.26.69l-12,6.94A14.58,14.58,0,0,1,128.08,237.89Z" transform="translate(-52.93 -48.64)"/><path d="M129.27,74.33H118.2V62.49h11.07Zm-9.88-1.19h8.68V63.69h-8.68Z" transform="translate(-52.93 -48.64)"/><path d="M135.68,79.22l-7.61-5.17V62.77l7.61-5.17Zm-6.41-5.8L134.48,77V59.87l-5.21,3.53Z" transform="translate(-52.93 -48.64)"/><path d="M119.39,72.11h-4.55v-7.4h4.55ZM116,70.92h2.17v-5H116Z" transform="translate(-52.93 -48.64)"/><polygon points="72.71 35.62 70.53 35.62 65.33 25.37 66.4 24.83 71.26 34.42 71.51 34.42 71.51 25.1 72.71 25.1 72.71 35.62"/><path d="M137.79,72.09l-.85-.84a4,4,0,0,0,0-5.68l.85-.84a5.21,5.21,0,0,1,0,7.36Z" transform="translate(-52.93 -48.64)"/><path d="M139.72,74l-.84-.85a6.76,6.76,0,0,0,0-9.54l.84-.85a7.94,7.94,0,0,1,0,11.24Z" transform="translate(-52.93 -48.64)"/><path class="cls-1" d="M128.08,91a21.18,21.18,0,1,1,21.18-21.18A21.21,21.21,0,0,1,128.08,91Zm0-39.36a18.18,18.18,0,1,0,18.18,18.18A18.19,18.19,0,0,0,128.08,51.64Z" transform="translate(-52.93 -48.64)"/><rect x="248.47" y="16.62" width="1.29" height="6.97"/><rect x="245.63" y="19.46" width="6.97" height="1.29"/><path d="M302.05,77.64a8.9,8.9,0,1,1,8.9-8.9A8.91,8.91,0,0,1,302.05,77.64Zm0-16.51a7.61,7.61,0,1,0,7.61,7.61A7.62,7.62,0,0,0,302.05,61.13Z" transform="translate(-52.93 -48.64)"/><rect x="244.13" y="30.28" width="9.98" height="1.29"/><rect x="244.13" y="32.68" width="9.98" height="1.29"/><path d="M302.05,85.41a3.91,3.91,0,0,1-2.78-1.15l.91-.91a2.64,2.64,0,0,0,3.73,0l.92.91A3.92,3.92,0,0,1,302.05,85.41Z" transform="translate(-52.93 -48.64)"/><path d="M303.08,57.54a11.92,11.92,0,0,0-2.07,0l-.11-1.29a12.62,12.62,0,0,1,2.3,0Z" transform="translate(-52.93 -48.64)"/><path d="M297.24,58.57l-.55-1.17c.35-.16.7-.31,1.07-.44s.73-.25,1.1-.35l.33,1.25c-.33.09-.66.19-1,.31A10.2,10.2,0,0,0,297.24,58.57Z" transform="translate(-52.93 -48.64)"/><path d="M294.05,60.83l-.91-.91c.27-.27.55-.53.85-.78a10,10,0,0,1,.91-.7l.74,1.06a8.13,8.13,0,0,0-.82.63A10.13,10.13,0,0,0,294.05,60.83Z" transform="translate(-52.93 -48.64)"/><path d="M291.83,64l-1.17-.54a11.15,11.15,0,0,1,.53-1c.19-.33.4-.66.62-1l1.05.75c-.19.28-.38.57-.55.87A9,9,0,0,0,291.83,64Z" transform="translate(-52.93 -48.64)"/><path d="M290.84,67.82l-1.29-.11a11.12,11.12,0,0,1,.15-1.14,10.3,10.3,0,0,1,.25-1.13l1.25.34c-.09.33-.17.67-.23,1A9.06,9.06,0,0,0,290.84,67.82Z" transform="translate(-52.93 -48.64)"/><path d="M290,72.05a10.84,10.84,0,0,1-.25-1.13,11.12,11.12,0,0,1-.15-1.14l1.29-.11a9.35,9.35,0,0,0,.13,1c.06.34.14.68.23,1Z" transform="translate(-52.93 -48.64)"/><path d="M291.81,76a10.84,10.84,0,0,1-.62-1,9.86,9.86,0,0,1-.53-1l1.17-.54a9,9,0,0,0,.48.92c.17.3.36.59.55.87Z" transform="translate(-52.93 -48.64)"/><path d="M294.9,79.05c-.31-.22-.62-.45-.91-.7s-.58-.51-.85-.78l.91-.91c.25.24.5.48.77.7a8.13,8.13,0,0,0,.82.63Z" transform="translate(-52.93 -48.64)"/><path d="M309.19,79.05,308.46,78a9.43,9.43,0,0,0,.82-.63,10.16,10.16,0,0,0,.76-.7l.92.91c-.27.27-.55.53-.85.78S309.51,78.83,309.19,79.05Z" transform="translate(-52.93 -48.64)"/><path d="M312.29,76l-1.06-.75a9.9,9.9,0,0,0,.56-.87c.18-.3.33-.61.48-.92l1.17.54c-.16.35-.34.69-.53,1A10.84,10.84,0,0,1,312.29,76Z" transform="translate(-52.93 -48.64)"/><path d="M314.15,72.05l-1.25-.34c.09-.33.17-.67.23-1s.1-.69.13-1l1.29.11a11.12,11.12,0,0,1-.15,1.14C314.33,71.3,314.25,71.68,314.15,72.05Z" transform="translate(-52.93 -48.64)"/><path d="M313.26,67.82c0-.34-.07-.69-.13-1s-.14-.68-.23-1l1.25-.34c.1.37.18.74.25,1.13a11.12,11.12,0,0,1,.15,1.14Z" transform="translate(-52.93 -48.64)"/><path d="M312.27,64c-.15-.31-.3-.62-.48-.92a9.9,9.9,0,0,0-.56-.87l1.06-.75c.22.31.43.64.62,1s.37.68.53,1Z" transform="translate(-52.93 -48.64)"/><path d="M310,60.83a8.4,8.4,0,0,0-.76-.7,9.43,9.43,0,0,0-.82-.63l.73-1.06a10.15,10.15,0,0,1,.92.7c.3.25.58.51.85.78Z" transform="translate(-52.93 -48.64)"/><path d="M306.85,58.57c-.31-.15-.63-.28-1-.4s-.66-.22-1-.31l.33-1.25c.37.1.73.22,1.1.35s.72.28,1.06.44Z" transform="translate(-52.93 -48.64)"/><path class="cls-2" d="M302.05,237.89a14.62,14.62,0,0,1-7.33-2L234.23,201a14.69,14.69,0,0,1-7.33-12.69V118.47a14.69,14.69,0,0,1,7.33-12.69l49.43-28.54,1.5,2.6-49.43,28.54a11.69,11.69,0,0,0-5.83,10.09v69.85a11.7,11.7,0,0,0,5.83,10.09l60.49,34.92a11.66,11.66,0,0,0,11.65,0l12-6.94a14.74,14.74,0,0,1,12.91-.86l14.29,5.89,2-15.32a14.77,14.77,0,0,1,7.2-10.75l12-6.94a11.69,11.69,0,0,0,5.82-10.09V118.47a11.68,11.68,0,0,0-5.82-10.09L318.94,79.84l1.5-2.6,49.43,28.54a14.69,14.69,0,0,1,7.32,12.69v69.85A14.69,14.69,0,0,1,369.87,201l-12,6.94a11.71,11.71,0,0,0-5.72,8.55l-2.57,19.17-17.88-7.37a11.75,11.75,0,0,0-10.27.69l-12,6.94A14.58,14.58,0,0,1,302.05,237.89Z" transform="translate(-52.93 -48.64)"/><path class="cls-2" d="M302.05,91a21.18,21.18,0,1,1,21.18-21.18A21.21,21.21,0,0,1,302.05,91Zm0-39.36a18.18,18.18,0,1,0,18.18,18.18A18.19,18.19,0,0,0,302.05,51.64Z" transform="translate(-52.93 -48.64)"/><path d="M480.92,68.7h-1.07a3.59,3.59,0,0,0-3.57-3.57h-2.52a3.59,3.59,0,0,0-3.57,3.57h-1.07a4.66,4.66,0,0,1,4.64-4.64h2.52A4.66,4.66,0,0,1,480.92,68.7Z" transform="translate(-52.93 -48.64)"/><path d="M475,65.14A3.31,3.31,0,0,1,474,65l-.56-.2A3.61,3.61,0,0,1,471,61.36v-.65a4,4,0,0,1,8,0v.65a3.61,3.61,0,0,1-2.38,3.39l-.56.2A3.31,3.31,0,0,1,475,65.14Zm0-7.36a2.94,2.94,0,0,0-2.94,2.93v.65a2.53,2.53,0,0,0,1.67,2.38l.56.2a2,2,0,0,0,1.41,0l.57-.2A2.53,2.53,0,0,0,478,61.36v-.65A2.94,2.94,0,0,0,475,57.78Z" transform="translate(-52.93 -48.64)"/><path d="M484.62,77.93h-2.71V76.86h2.71A2.83,2.83,0,0,0,487.45,74V70.74A2.79,2.79,0,0,0,484.66,68h-.76V66.88h.76a3.86,3.86,0,0,1,3.86,3.86V74A3.91,3.91,0,0,1,484.62,77.93Z" transform="translate(-52.93 -48.64)"/><path d="M483.9,68a2.62,2.62,0,0,1-.88-.15l-.43-.16a2.93,2.93,0,0,1-1.94-2.75v-.51a3.25,3.25,0,0,1,6.49,0v.51a2.94,2.94,0,0,1-1.93,2.75l-.44.16A2.61,2.61,0,0,1,483.9,68ZM483,66.63l.44.16a1.49,1.49,0,0,0,1,0l.43-.16a1.84,1.84,0,0,0,1.23-1.74v-.51a2.18,2.18,0,0,0-4.35,0v.51A1.84,1.84,0,0,0,483,66.63Z" transform="translate(-52.93 -48.64)"/><path d="M468.13,77.93h-2.71a3.91,3.91,0,0,1-3.9-3.9V70.74a3.86,3.86,0,0,1,3.86-3.86h.76V68h-.76a2.79,2.79,0,0,0-2.79,2.79V74a2.83,2.83,0,0,0,2.83,2.83h2.71Z" transform="translate(-52.93 -48.64)"/><path d="M466.15,68a2.62,2.62,0,0,1-.88-.15l-.44-.16a2.94,2.94,0,0,1-1.93-2.75v-.51a3.25,3.25,0,0,1,6.49,0v.51a2.94,2.94,0,0,1-1.93,2.75l-.44.16A2.61,2.61,0,0,1,466.15,68Zm0-5.74A2.17,2.17,0,0,0,464,64.38v.51a1.84,1.84,0,0,0,1.23,1.74l.43.16a1.52,1.52,0,0,0,1,0l.43-.16a1.84,1.84,0,0,0,1.23-1.74v-.51A2.18,2.18,0,0,0,466.14,62.21Z" transform="translate(-52.93 -48.64)"/><path d="M475,80.16A6.12,6.12,0,1,1,481.14,74,6.13,6.13,0,0,1,475,80.16ZM475,69A5,5,0,1,0,480.07,74,5.06,5.06,0,0,0,475,69Z" transform="translate(-52.93 -48.64)"/><rect x="421.55" y="22.5" width="1.07" height="5.81"/><rect x="419.18" y="24.87" width="5.81" height="1.07"/><path class="cls-3" d="M476,237.89a14.56,14.56,0,0,1-7.32-2L408.2,201a14.69,14.69,0,0,1-7.32-12.69V118.47a14.69,14.69,0,0,1,7.32-12.69l49.43-28.54,1.5,2.6L409.7,108.38a11.68,11.68,0,0,0-5.82,10.09v69.85a11.69,11.69,0,0,0,5.82,10.09l60.5,34.92a11.66,11.66,0,0,0,11.65,0l12-6.94a14.71,14.71,0,0,1,12.9-.86l14.29,5.89,2-15.32a14.69,14.69,0,0,1,7.19-10.74l12-7a11.69,11.69,0,0,0,5.82-10.09V118.47a11.68,11.68,0,0,0-5.82-10.09L492.91,79.84l1.5-2.6,49.43,28.54a14.69,14.69,0,0,1,7.32,12.69v69.85A14.69,14.69,0,0,1,543.84,201l-12,6.94a11.71,11.71,0,0,0-5.72,8.55l-2.56,19.17-17.89-7.37a11.72,11.72,0,0,0-10.26.69l-12,6.94A14.62,14.62,0,0,1,476,237.89Z" transform="translate(-52.93 -48.64)"/><path class="cls-3" d="M476,91A21.18,21.18,0,1,1,497.2,69.82,21.21,21.21,0,0,1,476,91Zm0-39.36A18.18,18.18,0,1,0,494.2,69.82,18.2,18.2,0,0,0,476,51.64Z" transform="translate(-52.93 -48.64)"/><path d="M645.13,80.39h-6.58V65.12h6.58Zm-5.51-1.07h4.44V66.19h-4.44Z" transform="translate(-52.93 -48.64)"/><path d="M656.93,80.39l-9.45,0-3.07-1.13.37-1,3,1.1h9.17a1.5,1.5,0,0,0,1.49-1.42l.52-10.14a1.52,1.52,0,0,0-.41-1.11,1.5,1.5,0,0,0-1.09-.46H649.7l.38-.77c1.35-2.74,1.66-3.65,1.59-6.38A1.64,1.64,0,0,0,650,57.46a.1.1,0,0,0-.1.08,10,10,0,0,1-3,6.5l-2,2-.75-.76,2-2a8.93,8.93,0,0,0,2.63-5.81A1.17,1.17,0,0,1,650,56.39,2.71,2.71,0,0,1,652.73,59a10.84,10.84,0,0,1-1.31,6.1h6A2.56,2.56,0,0,1,660,67.81L659.49,78A2.57,2.57,0,0,1,656.93,80.39Z" transform="translate(-52.93 -48.64)"/><rect x="602.22" y="20.03" width="4.24" height="1.07"/><rect x="602.04" y="23.58" width="4.24" height="1.07"/><rect x="601.86" y="27.13" width="4.24" height="1.07"/><rect x="588.37" y="27.26" width="1.07" height="1.67"/><path class="cls-4" d="M650,237.89a14.58,14.58,0,0,1-7.32-2L582.17,201a14.71,14.71,0,0,1-7.32-12.69V118.47a14.71,14.71,0,0,1,7.32-12.69L631.6,77.24l1.5,2.6-49.43,28.54a11.68,11.68,0,0,0-5.82,10.09v69.85a11.69,11.69,0,0,0,5.82,10.09l60.5,34.92a11.66,11.66,0,0,0,11.65,0l12-6.94a14.72,14.72,0,0,1,12.9-.86L695,231.42l2.05-15.32a14.69,14.69,0,0,1,7.19-10.74l12-7a11.7,11.7,0,0,0,5.83-10.09V118.47a11.69,11.69,0,0,0-5.83-10.09L666.88,79.84l1.5-2.6,49.43,28.54a14.69,14.69,0,0,1,7.33,12.69v69.85A14.69,14.69,0,0,1,717.81,201l-12,6.94a11.74,11.74,0,0,0-5.72,8.55l-2.56,19.17-17.89-7.37a11.72,11.72,0,0,0-10.26.69l-12,6.94A14.62,14.62,0,0,1,650,237.89Z" transform="translate(-52.93 -48.64)"/><path class="cls-4" d="M650,91a21.18,21.18,0,1,1,21.18-21.18A21.21,21.21,0,0,1,650,91Zm0-39.36a18.18,18.18,0,1,0,18.18,18.18A18.2,18.2,0,0,0,650,51.64Z" transform="translate(-52.93 -48.64)"/><path class="cls-5" d="M824,237.89a14.58,14.58,0,0,1-7.32-2L756.14,201a14.71,14.71,0,0,1-7.32-12.69V118.47a14.71,14.71,0,0,1,7.32-12.69l49.43-28.54,1.5,2.6-49.43,28.54a11.68,11.68,0,0,0-5.82,10.09v69.85a11.69,11.69,0,0,0,5.82,10.09l60.5,34.92a11.66,11.66,0,0,0,11.65,0l60.49-34.92a11.68,11.68,0,0,0,5.83-10.09V118.47a11.67,11.67,0,0,0-5.83-10.09L840.86,79.84l1.5-2.6,49.42,28.54a14.69,14.69,0,0,1,7.33,12.69v69.85A14.69,14.69,0,0,1,891.78,201l-60.49,34.92A14.59,14.59,0,0,1,824,237.89Z" transform="translate(-52.93 -48.64)"/><path d="M823.47,83a13.75,13.75,0,1,1,5.24-26.45l-.51,1.24a12.37,12.37,0,1,0,6.7,6.64l1.23-.52A13.75,13.75,0,0,1,823.47,83Z" transform="translate(-52.93 -48.64)"/><path d="M823.47,79.47A10.19,10.19,0,1,1,827,59.72L826.5,61a8.68,8.68,0,0,0-3-.54,8.81,8.81,0,1,0,8.32,5.83l1.25-.45a10,10,0,0,1,.61,3.47A10.2,10.2,0,0,1,823.47,79.47Z" transform="translate(-52.93 -48.64)"/><path d="M823.47,75.91a6.63,6.63,0,1,1,2.67-12.69l-.54,1.23a5.22,5.22,0,0,0-2.13-.45,5.29,5.29,0,1,0,5.29,5.29,5.35,5.35,0,0,0-.45-2.13l1.22-.54a6.62,6.62,0,0,1-6.06,9.29Z" transform="translate(-52.93 -48.64)"/><path d="M823.47,72.36a3.07,3.07,0,0,1,0-6.14v1.34a1.73,1.73,0,1,0,1.73,1.73h1.33A3.07,3.07,0,0,1,823.47,72.36Z" transform="translate(-52.93 -48.64)"/><rect x="813.31" y="80.44" width="3.1" height="1.34" transform="translate(216.83 643.57) rotate(-53.95)"/><rect x="831.4" y="79.56" width="1.34" height="3.1" transform="translate(58.67 456.56) rotate(-36.05)"/><rect x="821.5" y="63.88" width="13.4" height="1.34" transform="translate(144 555.9) rotate(-45)"/><path d="M828.82,64.89l-.65-5L833,55l.65,5Zm.76-4.54.21,1.67,2.45-2.45L832,57.9Z" transform="translate(-52.93 -48.64)"/><path d="M832.89,64.59l-5-.65,4.83-4.84,5,.65ZM830.74,63l1.67.22,2.44-2.45-1.66-.21Z" transform="translate(-52.93 -48.64)"/><path class="cls-5" d="M824,91a21.18,21.18,0,1,1,21.18-21.18A21.22,21.22,0,0,1,824,91Zm0-39.36a18.18,18.18,0,1,0,18.18,18.18A18.2,18.2,0,0,0,824,51.64Z" transform="translate(-52.93 -48.64)"/><path d="M214.77,395.62a16.79,16.79,0,0,1-7.88-2l-.34-.2v-2.25a3.39,3.39,0,0,1,2-3.08l4.3-2,.57,1.24-4.3,2a2,2,0,0,0-1.17,1.84v1.45a15.53,15.53,0,0,0,13.69,0v-1.45a2,2,0,0,0-1.17-1.84l-4.27-2,.57-1.24,4.28,2a3.4,3.4,0,0,1,2,3.08v2.25l-.34.2A16.73,16.73,0,0,1,214.77,395.62Z" transform="translate(-52.93 -48.64)"/><path d="M211.44,383.11l-.26-1.34c2-.39,3.43-.93,4-2.31l1.26.53C215.59,382.05,213.53,382.71,211.44,383.11Z" transform="translate(-52.93 -48.64)"/><path d="M217.88,382.53a4.75,4.75,0,0,1-3.23-1.2l.9-1a3.44,3.44,0,0,0,2.54.85h.13v1.37h-.34Z" transform="translate(-52.93 -48.64)"/><path d="M214.77,387.9h-.28a4.21,4.21,0,0,1-3.86-4.25v-2.56a3.78,3.78,0,0,1,3.77-3.78h.73a3.79,3.79,0,0,1,3.78,3.78v2.68a4.16,4.16,0,0,1-1.31,3A4.1,4.1,0,0,1,214.77,387.9Zm-.37-9.23a2.42,2.42,0,0,0-2.41,2.41v2.56a2.85,2.85,0,0,0,2.59,2.89,2.78,2.78,0,0,0,2.08-.75,2.73,2.73,0,0,0,.88-2v-2.68a2.41,2.41,0,0,0-2.41-2.41Z" transform="translate(-52.93 -48.64)"/><path d="M214.77,402.51a15.57,15.57,0,0,1-2.66-.23l-.49-.09-.38-2.59a13.59,13.59,0,0,1-3-1.22l-1.71,1.27-.39.29-.41-.28a15.88,15.88,0,0,1-2-1.72,16.59,16.59,0,0,1-1.72-2l-.28-.41.29-.39,1.28-1.71a13.15,13.15,0,0,1-1.23-2.95l-2.59-.38-.09-.49a15.44,15.44,0,0,1,0-5.31l.09-.49,2.59-.38a13.42,13.42,0,0,1,1.23-3l-1.57-2.1.28-.4a15.22,15.22,0,0,1,1.72-2,15.88,15.88,0,0,1,2-1.72l.41-.29.39.3c.8.59,1.33,1,1.69,1.28a13,13,0,0,1,3-1.23c.11-.73.31-2.11.31-2.11l.07-.49.49-.08a15.78,15.78,0,0,1,5.31,0l.49.08.38,2.6a12.92,12.92,0,0,1,3,1.22l2.1-1.57.4.29a15.73,15.73,0,0,1,3.76,3.76l.29.4-.3.4c-.59.79-1,1.33-1.28,1.69a12.84,12.84,0,0,1,1.23,3l2.6.38.08.49a15.44,15.44,0,0,1,0,5.31l-.08.49-2.6.38a12.67,12.67,0,0,1-1.22,2.95l1.57,2.1-.29.41a15.11,15.11,0,0,1-1.72,2,15.88,15.88,0,0,1-2,1.72l-.4.28-.4-.29-1.69-1.28a13.3,13.3,0,0,1-3,1.23l-.38,2.59-.49.09A15.54,15.54,0,0,1,214.77,402.51Zm-1.94-1.5a14.75,14.75,0,0,0,3.87,0c.37-2.52.43-2.69.92-2.65a11.75,11.75,0,0,0,3.31-1.39l.4-.24.37.28,1.66,1.24a12.74,12.74,0,0,0,1.46-1.28,14.7,14.7,0,0,0,1.28-1.46c-1.52-2-1.59-2.18-1.22-2.52a11.71,11.71,0,0,0,1.33-3.23c0-.49.14-.55,2.65-.91a14,14,0,0,0,.13-1.94,13.7,13.7,0,0,0-.13-1.93c-2.51-.37-2.67-.42-2.64-.92a11.49,11.49,0,0,0-1.4-3.31l-1-1.61,1.32.44.94-1.26a14.81,14.81,0,0,0-2.74-2.74c-2,1.52-2.18,1.59-2.51,1.22a11.84,11.84,0,0,0-3.23-1.33c-.51,0-.55-.14-.92-2.65a14.75,14.75,0,0,0-3.87,0c-.36,2.5-.4,2.61-.87,2.64a11.4,11.4,0,0,0-3.36,1.4l-.4.24-.37-.28-1.66-1.24a14.7,14.7,0,0,0-1.46,1.28,12.74,12.74,0,0,0-1.28,1.46l1.52,2-.24.4a11.63,11.63,0,0,0-1.39,3.31c0,.5-.14.55-2.65.92a15.51,15.51,0,0,0-.13,1.93,15.67,15.67,0,0,0,.13,1.94c2.51.36,2.67.42,2.65.91a11.81,11.81,0,0,0,1.39,3.32c.2.4.22.43-1.28,2.43a14.81,14.81,0,0,0,2.74,2.74c2-1.51,2.11-1.55,2.47-1.25a11.74,11.74,0,0,0,3.38,1.38l.45.11Z" transform="translate(-52.93 -48.64)"/><path class="cls-6" d="M233.67,380.08l-1.5-2.6,49.21-28.41A11.67,11.67,0,0,0,287.21,339V269.13A11.68,11.68,0,0,0,281.38,259l-9.05-5.23a14.73,14.73,0,0,1-7.2-10.74l-2-15.32-14.29,5.89a14.55,14.55,0,0,1-12.9-.86l-15-8.67a11.66,11.66,0,0,0-11.64,0L148.74,259a11.69,11.69,0,0,0-5.82,10.09V339a11.68,11.68,0,0,0,5.82,10.09L198,377.48l-1.5,2.6-49.21-28.41A14.71,14.71,0,0,1,139.92,339V269.13a14.71,14.71,0,0,1,7.32-12.69l60.5-34.92a14.67,14.67,0,0,1,14.64,0l15,8.66a11.56,11.56,0,0,0,10.26.68l17.88-7.37,2.56,19.18a11.72,11.72,0,0,0,5.73,8.54l9.05,5.23a14.69,14.69,0,0,1,7.33,12.69V339a14.69,14.69,0,0,1-7.33,12.69Z" transform="translate(-52.93 -48.64)"/><path class="cls-6" d="M215.06,408.24a21.18,21.18,0,1,1,21.18-21.18A21.2,21.2,0,0,1,215.06,408.24Zm0-39.36a18.18,18.18,0,1,0,18.18,18.18A18.2,18.2,0,0,0,215.06,368.88Z" transform="translate(-52.93 -48.64)"/><path d="M382.58,392.93a5.19,5.19,0,1,1,5.2-5.19A5.2,5.2,0,0,1,382.58,392.93Zm0-9.28a4.09,4.09,0,1,0,4.1,4.09A4.1,4.1,0,0,0,382.58,383.65Z" transform="translate(-52.93 -48.64)"/><rect x="329.1" y="336.69" width="1.1" height="4.83"/><rect x="327.24" y="338.56" width="4.83" height="1.1"/><rect x="385.67" y="382.09" width="9.06" height="1.1" transform="translate(-198.86 228.02) rotate(-33.26)"/><path d="M396.09,381.76a2,2,0,0,1-.35,0,3.14,3.14,0,0,1-1.62-5.59,3.09,3.09,0,0,1,2.32-.67,3.15,3.15,0,0,1-.35,6.28Zm0-5.2a2,2,0,0,0-1.27.44,2.06,2.06,0,1,0,1.51-.43Z" transform="translate(-52.93 -48.64)"/><rect x="389.66" y="388.31" width="1.1" height="9.06" transform="translate(-205.15 455.4) rotate(-56.78)"/><path d="M396.08,400a3.15,3.15,0,0,1-.34-6.29,3.16,3.16,0,0,1,3.48,2.78,3.16,3.16,0,0,1-2.78,3.49Zm0-5.21h-.23a2.06,2.06,0,0,0-1.05,3.65,2.1,2.1,0,0,0,1.51.44,2.06,2.06,0,0,0,1.81-2.28,2,2,0,0,0-.76-1.37A2,2,0,0,0,396.09,394.82Z" transform="translate(-52.93 -48.64)"/><path class="cls-7" d="M407.64,380.08l-1.5-2.6,49.21-28.41A11.67,11.67,0,0,0,461.18,339V269.13A11.68,11.68,0,0,0,455.35,259l-9.05-5.23a14.73,14.73,0,0,1-7.2-10.74l-2-15.32-14.29,5.89a14.77,14.77,0,0,1-12.91-.86l-15-8.66a11.66,11.66,0,0,0-11.65,0L322.72,259a11.68,11.68,0,0,0-5.83,10.09V339a11.67,11.67,0,0,0,5.83,10.09l49.21,28.41-1.5,2.6-49.21-28.41A14.69,14.69,0,0,1,313.89,339V269.13a14.69,14.69,0,0,1,7.33-12.69l60.49-34.92a14.68,14.68,0,0,1,14.65,0l15,8.66a11.74,11.74,0,0,0,10.27.68l17.88-7.37,2.57,19.18a11.68,11.68,0,0,0,5.72,8.54l9.05,5.23a14.69,14.69,0,0,1,7.33,12.69V339a14.69,14.69,0,0,1-7.33,12.69Z" transform="translate(-52.93 -48.64)"/><path class="cls-7" d="M389,408.24a21.18,21.18,0,1,1,21.18-21.18A21.21,21.21,0,0,1,389,408.24Zm0-39.36a18.18,18.18,0,1,0,18.18,18.18A18.2,18.2,0,0,0,389,368.88Z" transform="translate(-52.93 -48.64)"/><path class="cls-8" d="M718.37,380.08l-49.21-28.41A14.69,14.69,0,0,1,661.83,339V269.13a14.69,14.69,0,0,1,7.33-12.69l60.49-34.92a14.68,14.68,0,0,1,14.65,0l15,8.66a11.72,11.72,0,0,0,10.26.68l17.89-7.37L790,242.67a11.74,11.74,0,0,0,5.72,8.55l9.06,5.22a14.71,14.71,0,0,1,7.32,12.69V339a14.71,14.71,0,0,1-7.32,12.69l-49.21,28.41-1.5-2.6,49.21-28.41A11.68,11.68,0,0,0,809.12,339V269.13A11.69,11.69,0,0,0,803.3,259l-9.06-5.23a14.69,14.69,0,0,1-7.19-10.74l-2-15.32-14.29,5.89a14.75,14.75,0,0,1-12.9-.86l-15-8.66a11.66,11.66,0,0,0-11.65,0L670.66,259a11.7,11.7,0,0,0-5.83,10.09V339a11.69,11.69,0,0,0,5.83,10.09l49.21,28.41Z" transform="translate(-52.93 -48.64)"/><path class="cls-8" d="M737,408.24a21.18,21.18,0,1,1,21.18-21.18A21.2,21.2,0,0,1,737,408.24Zm0-39.36a18.18,18.18,0,1,0,18.18,18.18A18.19,18.19,0,0,0,737,368.88Z" transform="translate(-52.93 -48.64)"/><path d="M749.51,393.54h-24.9V376.26h24.9Zm-23.83-1.08h22.75V377.34H725.68Z" transform="translate(-52.93 -48.64)"/><rect x="678.39" y="347.88" width="11.47" height="1.08"/><polygon points="687.77 348.89 680.47 348.89 680.47 345.87 681.55 345.87 681.55 347.81 686.69 347.81 686.69 345.87 687.77 345.87 687.77 348.89"/><rect x="688.6" y="329.78" width="1.21" height="1.08"/><rect x="690.84" y="329.78" width="1.21" height="1.08"/><rect x="693.07" y="329.78" width="1.21" height="1.08"/><path d="M731.56,391h-4v-4.93h4ZM728.65,390h1.84v-2.78h-1.84Z" transform="translate(-52.93 -48.64)"/><path d="M736.56,391h-4v-5.2h4ZM733.64,390h1.84V386.9h-1.84Z" transform="translate(-52.93 -48.64)"/><path d="M741.55,391h-4v-6.93h4ZM738.63,390h1.84v-4.78h-1.84Z" transform="translate(-52.93 -48.64)"/><path d="M746.54,391h-4V382h4ZM743.63,390h1.83V383h-1.83Z" transform="translate(-52.93 -48.64)"/><rect x="675.8" y="330.23" width="1.08" height="4.13"/><rect x="674.28" y="331.75" width="4.13" height="1.08"/><path class="cls-9" d="M581.61,380.08l-1.5-2.6,49.22-28.41A11.68,11.68,0,0,0,635.15,339V269.13A11.69,11.69,0,0,0,629.33,259l-9.06-5.23a14.69,14.69,0,0,1-7.19-10.74L611,227.75l-14.29,5.89a14.72,14.72,0,0,1-12.9-.86l-15-8.66a11.66,11.66,0,0,0-11.65,0L496.69,259a11.68,11.68,0,0,0-5.83,10.09V339a11.67,11.67,0,0,0,5.83,10.09l49.21,28.41-1.5,2.6-49.21-28.41A14.69,14.69,0,0,1,487.86,339V269.13a14.69,14.69,0,0,1,7.33-12.69l60.49-34.92a14.68,14.68,0,0,1,14.65,0l15,8.66a11.72,11.72,0,0,0,10.26.68l17.89-7.37,2.56,19.18a11.71,11.71,0,0,0,5.72,8.55l9.06,5.22a14.71,14.71,0,0,1,7.32,12.69V339a14.71,14.71,0,0,1-7.32,12.69Z" transform="translate(-52.93 -48.64)"/><path class="cls-9" d="M563,408.24a21.18,21.18,0,1,1,21.18-21.18A21.2,21.2,0,0,1,563,408.24Zm0-39.36a18.18,18.18,0,1,0,18.18,18.18A18.19,18.19,0,0,0,563,368.88Z" transform="translate(-52.93 -48.64)"/><path d="M571.63,396.06H554.39a2.74,2.74,0,0,1-2.74-2.74V380.7h22.72v12.62A2.74,2.74,0,0,1,571.63,396.06Zm-19-14.4v11.66a1.78,1.78,0,0,0,1.78,1.78h17.24a1.78,1.78,0,0,0,1.78-1.78V381.66Z" transform="translate(-52.93 -48.64)"/><path d="M574.37,381.66H551.65V377h22.72Zm-21.76-1h20.8V378h-20.8Z" transform="translate(-52.93 -48.64)"/><rect x="518.14" y="330.22" width="1.4" height="0.96"/><rect x="515.86" y="330.22" width="1.4" height="0.96"/><rect x="513.59" y="330.22" width="1.4" height="0.96"/><path d="M560.89,391h-2.95a1.81,1.81,0,0,1-1.8-1.8v-1.68a1.8,1.8,0,0,1,1.8-1.79h2.95a1.8,1.8,0,0,1,1.8,1.79h-1a.83.83,0,0,0-.83-.83h-2.95a.83.83,0,0,0-.84.83v1.68a.84.84,0,0,0,.84.84h2.95a.84.84,0,0,0,.83-.84h1A1.81,1.81,0,0,1,560.89,391Z" transform="translate(-52.93 -48.64)"/><path d="M568.08,391h-3a1.8,1.8,0,0,1-1.79-1.8h1a.84.84,0,0,0,.83.84h3a.84.84,0,0,0,.83-.84v-1.68a.83.83,0,0,0-.83-.83h-3a.83.83,0,0,0-.83.83h-1a1.79,1.79,0,0,1,1.79-1.79h3a1.79,1.79,0,0,1,1.79,1.79v1.68A1.8,1.8,0,0,1,568.08,391Z" transform="translate(-52.93 -48.64)"/><rect x="506.89" y="339.27" width="6.37" height="0.96"/></svg>