<svg id="Layer_1" data-name="Layer 1" xmlns="http://www.w3.org/2000/svg" viewBox="0 0 971.09 222.24"><defs><style>.cls-1,.cls-2{fill:#ffc000;}.cls-2{font-size:132.25px;font-family:Montserrat-Black, Montserrat;font-weight:800;}.cls-3{fill:#4775e7;}</style></defs><path class="cls-1" d="M108.38,486.64H87.66a2.26,2.26,0,1,0,0,4.51h20.72a2.26,2.26,0,0,0,0-4.51Z" transform="translate(-60.95 -399.61)"/><path class="cls-1" d="M110.35,479.71H85.69a2.69,2.69,0,1,0,0,5.37h24.66a2.69,2.69,0,0,0,0-5.37Z" transform="translate(-60.95 -399.61)"/><rect class="cls-1" x="34.11" y="38.95" width="5.93" height="39.44"/><path class="cls-1" d="M133,443.45l-4-1.29a28.92,28.92,0,0,0,.05-9l3.93-1.28a3,3,0,0,0,1.95-3.83l-1.41-4.34a3.05,3.05,0,0,0-3.84-2l-3.84,1.25a31.74,31.74,0,0,0-5.28-7.33l2.35-3.24a3,3,0,0,0-.67-4.25l-3.69-2.69a3.06,3.06,0,0,0-4.26.68l-2.33,3.2a31.33,31.33,0,0,0-8.37-2.78v-4a3.06,3.06,0,0,0-3-3.05H96a3.06,3.06,0,0,0-3,3.05v3.9a30.52,30.52,0,0,0-8.88,2.86l-2.33-3.2a3.05,3.05,0,0,0-4.25-.68l-3.69,2.69a3,3,0,0,0-.68,4.25l2.36,3.24a31.16,31.16,0,0,0-5.28,7.33l-3.85-1.25a3.06,3.06,0,0,0-3.84,1.95l-1.41,4.35a3,3,0,0,0,2,3.83L67,433.21a24.26,24.26,0,0,0-.23,6c.06,1,.15,2,.29,3l-4,1.29a3.06,3.06,0,0,0-2,3.84l1.41,4.34a3.05,3.05,0,0,0,3.84,2l4-1.29s3.35,9.29,12.24,25.7H93.43V451.3H87.5v19.86c-1-2.14-13.21-24.57-13.21-33.47a23.71,23.71,0,0,1,41.61-15.55,23.53,23.53,0,0,1,5.79,16.67c-.84,8.15-9.25,25.24-13.35,32.31V425.83h-5.93V478h11.08c9.08-16.79,11.8-24.81,12.24-25.7l4,1.29a3.05,3.05,0,0,0,3.84-2l1.41-4.34A3.06,3.06,0,0,0,133,443.45Z" transform="translate(-60.95 -399.61)"/><path class="cls-1" d="M100.73,449.84l.25.08V438.56H95.05v9.52Z" transform="translate(-60.95 -399.61)"/><path class="cls-1" d="M63.05,431.93,67,433.21a24.26,24.26,0,0,0-.23,6c0,.48.07,1,.11,1.44l4.62,1.06c1.2.27,2.39.56,3.58.84a20,20,0,0,1-.76-4.84,23.71,23.71,0,0,1,41.61-15.55,23.53,23.53,0,0,1,5.79,16.67c-.41,4-2.62,10.06-5.24,16.07l7.25,2.37c1.27-3,1.85-4.58,2-4.95l4,1.29a3.05,3.05,0,0,0,3.84-2l1.41-4.34a3.06,3.06,0,0,0-1.95-3.84l-4-1.29a28.92,28.92,0,0,0,.05-9l3.93-1.28a3,3,0,0,0,1.95-3.83l-1.41-4.34a3.05,3.05,0,0,0-3.84-2l-3.84,1.25a31.74,31.74,0,0,0-5.28-7.33l2.35-3.24a3,3,0,0,0-.67-4.25l-3.69-2.69a3.06,3.06,0,0,0-4.26.68l-2.33,3.2a31.33,31.33,0,0,0-8.37-2.78v-4a3.06,3.06,0,0,0-3-3.05H96a3.06,3.06,0,0,0-3,3.05v3.9a30.52,30.52,0,0,0-8.88,2.86l-2.33-3.2a3.05,3.05,0,0,0-4.25-.68l-3.69,2.69a3,3,0,0,0-.68,4.25l2.36,3.24a31.16,31.16,0,0,0-5.28,7.33l-3.85-1.25a3.06,3.06,0,0,0-3.84,1.95l-1.41,4.35A3,3,0,0,0,63.05,431.93Z" transform="translate(-60.95 -399.61)"/><path class="cls-1" d="M102.41,450.38l5.93,1.88V425.83h-5.93Z" transform="translate(-60.95 -399.61)"/><text class="cls-2" transform="translate(13.87 186.53)">Idea<tspan class="cls-3" x="308.4" y="0">Deployer</tspan></text></svg>