<svg id="Pricing_table" data-name="Pricing table" xmlns="http://www.w3.org/2000/svg" viewBox="0 0 3599.72 3745.95"><defs><style>.cls-1{fill:#e6e7e8;}.cls-2{fill:#f1f2f2;}.cls-3{fill:#bcbec0;}.cls-4{fill:#579fd6;}.cls-5{fill:#fcb316;}.cls-6{fill:#ee5351;}.cls-7{fill:#66ba6a;}</style></defs><rect class="cls-1" y="294.12" width="1127.65" height="193.96"/><rect class="cls-2" y="494.74" width="1127.65" height="193.96"/><rect class="cls-1" y="695.36" width="1127.65" height="193.96"/><rect class="cls-2" y="895.98" width="1127.65" height="193.96"/><rect class="cls-1" y="1096.61" width="1127.65" height="193.96"/><rect class="cls-2" y="1297.23" width="1127.65" height="193.96"/><rect class="cls-1" y="1497.85" width="1127.65" height="193.96"/><rect class="cls-2" y="3351.36" width="1127.65" height="193.96"/><rect class="cls-1" y="3551.98" width="1127.65" height="193.96"/><path class="cls-3" d="M64.84,210.45h998a64.84,64.84,0,0,1,64.84,64.84v12.18a0,0,0,0,1,0,0H0a0,0,0,0,1,0,0V275.29A64.84,64.84,0,0,1,64.84,210.45Z"/><rect class="cls-1" x="1134.31" y="294.12" width="611.36" height="193.96"/><path class="cls-4" d="M1199.15,0h481.68a64.84,64.84,0,0,1,64.84,64.84V287.47a0,0,0,0,1,0,0H1134.31a0,0,0,0,1,0,0V64.84A64.84,64.84,0,0,1,1199.15,0Z"/><rect class="cls-2" x="1134.31" y="494.74" width="611.36" height="193.96"/><rect class="cls-1" x="1134.31" y="695.36" width="611.36" height="193.96"/><rect class="cls-2" x="1134.31" y="895.98" width="611.36" height="193.96"/><rect class="cls-1" x="1134.31" y="1096.61" width="611.36" height="193.96"/><rect class="cls-2" x="1134.31" y="1297.23" width="611.36" height="193.96"/><rect class="cls-1" x="1134.31" y="1497.85" width="611.36" height="193.96"/><rect class="cls-2" x="1134.31" y="3351.36" width="611.36" height="193.96"/><rect class="cls-1" x="1134.31" y="3551.98" width="611.36" height="193.96"/><path class="cls-1" d="M1287.68,194h304.61a64.84,64.84,0,0,1,64.84,64.84v28.66a0,0,0,0,1,0,0H1222.85a0,0,0,0,1,0,0V258.8A64.84,64.84,0,0,1,1287.68,194Z"/><rect class="cls-1" x="1752.32" y="294.12" width="611.36" height="193.96"/><path class="cls-5" d="M1817.16,0h481.68a64.84,64.84,0,0,1,64.84,64.84V287.47a0,0,0,0,1,0,0H1752.32a0,0,0,0,1,0,0V64.84A64.84,64.84,0,0,1,1817.16,0Z"/><rect class="cls-2" x="1752.32" y="494.74" width="611.36" height="193.96"/><rect class="cls-1" x="1752.32" y="695.36" width="611.36" height="193.96"/><rect class="cls-2" x="1752.32" y="895.98" width="611.36" height="193.96"/><rect class="cls-1" x="1752.32" y="1096.61" width="611.36" height="193.96"/><rect class="cls-2" x="1752.32" y="1297.23" width="611.36" height="193.96"/><rect class="cls-1" x="1752.32" y="1497.85" width="611.36" height="193.96"/><rect class="cls-2" x="1752.32" y="3351.36" width="611.36" height="193.96"/><rect class="cls-1" x="1752.32" y="3551.98" width="611.36" height="193.96"/><path class="cls-1" d="M1905.7,194h304.61a64.84,64.84,0,0,1,64.84,64.84v28.66a0,0,0,0,1,0,0H1840.86a0,0,0,0,1,0,0V258.8A64.84,64.84,0,0,1,1905.7,194Z"/><rect class="cls-1" x="2370.34" y="294.12" width="611.36" height="193.96"/><path class="cls-6" d="M2435.18,0h481.68a64.84,64.84,0,0,1,64.84,64.84V287.47a0,0,0,0,1,0,0H2370.34a0,0,0,0,1,0,0V64.84A64.84,64.84,0,0,1,2435.18,0Z"/><rect class="cls-2" x="2370.34" y="494.74" width="611.36" height="193.96"/><rect class="cls-1" x="2370.34" y="695.36" width="611.36" height="193.96"/><rect class="cls-2" x="2370.34" y="895.98" width="611.36" height="193.96"/><rect class="cls-1" x="2370.34" y="1096.61" width="611.36" height="193.96"/><rect class="cls-2" x="2370.34" y="1297.23" width="611.36" height="193.96"/><rect class="cls-1" x="2370.34" y="1497.85" width="611.36" height="193.96"/><rect class="cls-2" x="2370.34" y="3351.36" width="611.36" height="193.96"/><rect class="cls-1" x="2370.34" y="3551.98" width="611.36" height="193.96"/><path class="cls-1" d="M2523.72,194h304.61a64.84,64.84,0,0,1,64.84,64.84v28.66a0,0,0,0,1,0,0H2458.88a0,0,0,0,1,0,0V258.8A64.84,64.84,0,0,1,2523.72,194Z"/><rect class="cls-1" x="2988.36" y="294.12" width="611.36" height="193.96"/><path class="cls-7" d="M3053.2,0h481.68a64.84,64.84,0,0,1,64.84,64.84V287.47a0,0,0,0,1,0,0H2988.36a0,0,0,0,1,0,0V64.84A64.84,64.84,0,0,1,3053.2,0Z"/><rect class="cls-2" x="2988.36" y="494.74" width="611.36" height="193.96"/><rect class="cls-1" x="2988.36" y="695.36" width="611.36" height="193.96"/><rect class="cls-2" x="2988.36" y="895.98" width="611.36" height="193.96"/><rect class="cls-1" x="2988.36" y="1096.61" width="611.36" height="193.96"/><rect class="cls-2" x="2988.36" y="1297.23" width="611.36" height="193.96"/><rect class="cls-1" x="2988.36" y="1497.85" width="611.36" height="193.96"/><rect class="cls-2" x="2988.36" y="3351.36" width="611.36" height="193.96"/><rect class="cls-1" x="2988.36" y="3551.98" width="611.36" height="193.96"/><path class="cls-1" d="M3141.74,194h304.61a64.84,64.84,0,0,1,64.84,64.84v28.66a0,0,0,0,1,0,0H3076.9a0,0,0,0,1,0,0V258.8A64.84,64.84,0,0,1,3141.74,194Z"/><rect class="cls-2" y="1709.06" width="1127.65" height="193.96"/><rect class="cls-1" y="1909.68" width="1127.65" height="193.96"/><rect class="cls-2" x="1134.31" y="1709.06" width="611.36" height="193.96"/><rect class="cls-1" x="1134.31" y="1909.68" width="611.36" height="193.96"/><rect class="cls-2" x="1752.32" y="1709.06" width="611.36" height="193.96"/><rect class="cls-1" x="1752.32" y="1909.68" width="611.36" height="193.96"/><rect class="cls-2" x="2370.34" y="1709.06" width="611.36" height="193.96"/><rect class="cls-1" x="2370.34" y="1909.68" width="611.36" height="193.96"/><rect class="cls-2" x="2988.36" y="1709.06" width="611.36" height="193.96"/><rect class="cls-1" x="2988.36" y="1909.68" width="611.36" height="193.96"/><rect class="cls-2" y="2125.16" width="1127.65" height="193.96"/><rect class="cls-1" y="2325.78" width="1127.65" height="193.96"/><rect class="cls-2" x="1134.31" y="2125.16" width="611.36" height="193.96"/><rect class="cls-1" x="1134.31" y="2325.78" width="611.36" height="193.96"/><rect class="cls-2" x="1752.32" y="2125.16" width="611.36" height="193.96"/><rect class="cls-1" x="1752.32" y="2325.78" width="611.36" height="193.96"/><rect class="cls-2" x="2370.34" y="2125.16" width="611.36" height="193.96"/><rect class="cls-1" x="2370.34" y="2325.78" width="611.36" height="193.96"/><rect class="cls-2" x="2988.36" y="2125.16" width="611.36" height="193.96"/><rect class="cls-1" x="2988.36" y="2325.78" width="611.36" height="193.96"/><rect class="cls-2" y="2541.26" width="1127.65" height="193.96"/><rect class="cls-1" y="2741.88" width="1127.65" height="193.96"/><rect class="cls-2" x="1134.31" y="2541.26" width="611.36" height="193.96"/><rect class="cls-1" x="1134.31" y="2741.88" width="611.36" height="193.96"/><rect class="cls-2" x="1752.32" y="2541.26" width="611.36" height="193.96"/><rect class="cls-1" x="1752.32" y="2741.88" width="611.36" height="193.96"/><rect class="cls-2" x="2370.34" y="2541.26" width="611.36" height="193.96"/><rect class="cls-1" x="2370.34" y="2741.88" width="611.36" height="193.96"/><rect class="cls-2" x="2988.36" y="2541.26" width="611.36" height="193.96"/><rect class="cls-1" x="2988.36" y="2741.88" width="611.36" height="193.96"/><rect class="cls-2" y="2944.85" width="1127.65" height="193.96"/><rect class="cls-1" y="3145.47" width="1127.65" height="193.96"/><rect class="cls-2" x="1134.31" y="2944.85" width="611.36" height="193.96"/><rect class="cls-1" x="1134.31" y="3145.47" width="611.36" height="193.96"/><rect class="cls-2" x="1752.32" y="2944.85" width="611.36" height="193.96"/><rect class="cls-1" x="1752.32" y="3145.47" width="611.36" height="193.96"/><rect class="cls-2" x="2370.34" y="2944.85" width="611.36" height="193.96"/><rect class="cls-1" x="2370.34" y="3145.47" width="611.36" height="193.96"/><rect class="cls-2" x="2988.36" y="2944.85" width="611.36" height="193.96"/><rect class="cls-1" x="2988.36" y="3145.47" width="611.36" height="193.96"/></svg>