<svg id="Pricing_table_th_1" data-name="Pricing table" xmlns="http://www.w3.org/2000/svg" viewBox="0 0 3599.72 3745.95">
<!-- <path fill="#bcbec0" d="M64.84,210.45h998a64.84,64.84,0,0,1,64.84,64.84v12.18a0,0,0,0,1,0,0H0a0,0,0,0,1,0,0V275.29A64.84,64.84,0,0,1,64.84,210.45Z"></path> -->
  <path fill="#579fd6" d="M64.84,210.45h998a64.84,64.84,0,0,1,64.84,64.84v12.18a0,0,0,0,1,0,0H0a0,0,0,0,1,0,0V275.29A64.84,64.84,0,0,1,64.84,210.45Z"></path>
  <path fill="#e6e7e8" d="M1287.68,194h304.61a64.84,64.84,0,0,1,64.84,64.84v28.66a0,0,0,0,1,0,0H1222.85a0,0,0,0,1,0,0V258.8A64.84,64.84,0,0,1,1287.68,194Z"></path>
</svg>
