<svg width="152" height="195" xmlns="http://www.w3.org/2000/svg">
 <defs>
  <style>.cls-1{fill:#f46281;}.cls-2{fill:#5957ad;}.cls-3{fill:#0bd3f4;}.cls-4{fill:#19d886;}.cls-5{fill:#f4c606;}.cls-6{fill:#e053e0;}.cls-7{fill:#1f9cdb;}.cls-8{fill:#7cdb49;}.cls-9{fill:#24d3d3;}</style>
 </defs>
 <g>
  <title>background</title>
  <rect fill="none" id="canvas_background" height="197" width="154" y="-1" x="-1"/>
 </g>
 <g>
  <title>Layer 1</title>
  <path id="svg_78" d="m57.44,161.44l-49.21,-28.41a14.69,14.69 0 0 1 -7.33,-12.67l0,-69.87a14.69,14.69 0 0 1 7.33,-12.69l60.49,-34.92a14.68,14.68 0 0 1 14.65,0l15,8.66a11.72,11.72 0 0 0 10.26,0.68l17.89,-7.37l2.55,19.18a11.74,11.74 0 0 0 5.72,8.55l9.06,5.22a14.71,14.71 0 0 1 7.32,12.69l0,69.87a14.71,14.71 0 0 1 -7.32,12.69l-49.21,28.41l-1.5,-2.6l49.21,-28.41a11.68,11.68 0 0 0 5.84,-10.09l0,-69.87a11.69,11.69 0 0 0 -5.82,-10.13l-9.06,-5.23a14.69,14.69 0 0 1 -7.19,-10.74l-2,-15.32l-14.29,5.89a14.75,14.75 0 0 1 -12.9,-0.86l-15,-8.66a11.66,11.66 0 0 0 -11.65,0l-60.55,34.92a11.7,11.7 0 0 0 -5.83,10.09l0,69.91a11.69,11.69 0 0 0 5.83,10.09l49.21,28.41l-1.5,2.58z" class="cls-8"/>
  <path id="svg_79" d="m76.07,189.6a21.18,21.18 0 1 1 21.18,-21.18a21.2,21.2 0 0 1 -21.18,21.18zm0,-39.36a18.18,18.18 0 1 0 18.18,18.18a18.19,18.19 0 0 0 -18.18,-18.18z" class="cls-8"/>
  <path id="svg_80" d="m88.58,174.9l-24.9,0l0,-17.28l24.9,0l0,17.28zm-23.83,-1.08l22.75,0l0,-15.12l-22.75,0l0,15.12z"/>
  <rect id="svg_81" height="1.08" width="11.47" y="177.88" x="70.39"/>
  <polygon id="svg_82" points="79.77001953125,178.8900146484375 72.469970703125,178.8900146484375 72.469970703125,175.8699951171875 73.54998779296875,175.8699951171875 73.54998779296875,177.80999755859375 78.69000244140625,177.80999755859375 78.69000244140625,175.8699951171875 79.77001953125,175.8699951171875 79.77001953125,178.8900146484375 "/>
  <rect id="svg_83" height="1.08" width="1.21" y="159.78" x="80.6"/>
  <rect id="svg_84" height="1.08" width="1.21" y="159.78" x="82.84"/>
  <rect id="svg_85" height="1.08" width="1.21" y="159.78" x="85.07"/>
  <path id="svg_86" d="m70.63,172.36l-4,0l0,-4.93l4,0l0,4.93zm-2.91,-1l1.84,0l0,-2.78l-1.84,0l0,2.78z"/>
  <path id="svg_87" d="m75.63,172.36l-4,0l0,-5.2l4,0l0,5.2zm-2.92,-1l1.84,0l0,-3.1l-1.84,0l0,3.1z"/>
  <path id="svg_88" d="m80.62,172.36l-4,0l0,-6.93l4,0l0,6.93zm-2.92,-1l1.84,0l0,-4.78l-1.84,0l0,4.78z"/>
  <path id="svg_89" d="m85.61,172.36l-4,0l0,-9l4,0l0,9zm-2.91,-1l1.83,0l0,-7l-1.83,0l0,7z"/>
  <rect id="svg_90" height="4.13" width="1.08" y="160.23" x="67.8"/>
  <rect id="svg_91" height="1.08" width="4.13" y="161.75" x="66.28"/>
 </g>
</svg>