<svg width="152" height="195" xmlns="http://www.w3.org/2000/svg">
 <defs>
  <style>.cls-1{fill:#f46281;}.cls-2{fill:#5957ad;}.cls-3{fill:#0bd3f4;}.cls-4{fill:#19d886;}.cls-5{fill:#f4c606;}.cls-6{fill:#e053e0;}.cls-7{fill:#1f9cdb;}.cls-8{fill:#7cdb49;}.cls-9{fill:#24d3d3;}</style>
 </defs>
 <g>
  <title>background</title>
  <rect fill="none" id="canvas_background" height="197" width="154" y="-1" x="-1"/>
 </g>
 <g>
  <title>Layer 1</title>
  <path id="svg_51" d="m75.07,189.25a14.58,14.58 0 0 1 -7.32,-2l-60.54,-34.89a14.71,14.71 0 0 1 -7.32,-12.69l0,-69.84a14.71,14.71 0 0 1 7.32,-12.69l49.43,-28.54l1.5,2.6l-49.43,28.54a11.68,11.68 0 0 0 -5.82,10.09l0,69.85a11.69,11.69 0 0 0 5.82,10.09l60.5,34.92a11.66,11.66 0 0 0 11.65,0l60.49,-34.92a11.68,11.68 0 0 0 5.83,-10.09l0,-69.85a11.67,11.67 0 0 0 -5.83,-10.09l-49.42,-28.54l1.5,-2.6l49.42,28.54a14.69,14.69 0 0 1 7.33,12.69l0,69.85a14.69,14.69 0 0 1 -7.33,12.68l-60.49,34.92a14.59,14.59 0 0 1 -7.29,1.97z" class="cls-5"/>
  <path id="svg_52" d="m74.54,34.36a13.75,13.75 0 1 1 5.24,-26.45l-0.51,1.24a12.37,12.37 0 1 0 6.7,6.64l1.23,-0.52a13.75,13.75 0 0 1 -12.66,19.09z"/>
  <path id="svg_53" d="m74.54,30.83a10.19,10.19 0 1 1 3.53,-19.75l-0.5,1.28a8.68,8.68 0 0 0 -3,-0.54a8.81,8.81 0 1 0 8.32,5.83l1.25,-0.45a10,10 0 0 1 0.61,3.47a10.2,10.2 0 0 1 -10.21,10.16z"/>
  <path id="svg_54" d="m74.54,27.27a6.63,6.63 0 1 1 2.67,-12.69l-0.54,1.23a5.22,5.22 0 0 0 -2.13,-0.45a5.29,5.29 0 1 0 5.29,5.29a5.35,5.35 0 0 0 -0.45,-2.13l1.22,-0.54a6.62,6.62 0 0 1 -6.06,9.29z"/>
  <path id="svg_55" d="m74.54,23.72a3.07,3.07 0 0 1 0,-6.14l0,1.34a1.73,1.73 0 1 0 1.73,1.73l1.33,0a3.07,3.07 0 0 1 -3.06,3.07z"/>
  <rect id="svg_56" transform="rotate(-53.95000076293945 -479.1700439453128,643.5700073242186) " height="1.34" width="3.1" y="724.01001" x="334.14"/>
  <rect id="svg_57" transform="rotate(-36.04999923706055 -637.3300170898438,456.55999755859375) " height="3.1" width="1.34" y="536.12" x="194.07"/>
  <rect id="svg_58" transform="rotate(-45 -552,555.9000244140625) " height="1.34" width="13.4" y="619.78002" x="269.5"/>
  <path id="svg_59" d="m79.89,16.25l-0.65,-5l4.83,-4.89l0.65,5l-4.83,4.89zm0.76,-4.54l0.21,1.67l2.45,-2.45l-0.24,-1.67l-2.42,2.45z"/>
  <path id="svg_60" d="m83.96,15.95l-5,-0.65l4.83,-4.84l5,0.65l-4.83,4.84zm-2.15,-1.59l1.67,0.22l2.44,-2.45l-1.66,-0.21l-2.45,2.44z"/>
  <path id="svg_61" d="m75.07,42.36a21.18,21.18 0 1 1 21.18,-21.18a21.22,21.22 0 0 1 -21.18,21.18zm0,-39.36a18.18,18.18 0 1 0 18.18,18.18a18.2,18.2 0 0 0 -18.18,-18.18z" class="cls-5"/>
 </g>
</svg>