<svg width="153" height="195" xmlns="http://www.w3.org/2000/svg">
 <defs>
  <style>.cls-1{fill:#f46281;}.cls-2{fill:#5957ad;}.cls-3{fill:#0bd3f4;}.cls-4{fill:#19d886;}.cls-5{fill:#f4c606;}.cls-6{fill:#e053e0;}.cls-7{fill:#1f9cdb;}.cls-8{fill:#7cdb49;}.cls-9{fill:#24d3d3;}</style>
 </defs>
 <g>
  <title>background</title>
  <rect fill="none" id="canvas_background" height="197" width="155" y="-1" x="-1"/>
 </g>
 <g>
  <title>Layer 1</title>
  <path id="svg_32" d="m81.99,20.06l-1.07,0a3.59,3.59 0 0 0 -3.57,-3.57l-2.52,0a3.59,3.59 0 0 0 -3.57,3.57l-1.07,0a4.66,4.66 0 0 1 4.64,-4.64l2.52,0a4.66,4.66 0 0 1 4.64,4.64z"/>
  <path id="svg_33" d="m76.07,16.5a3.31,3.31 0 0 1 -1,-0.14l-0.56,-0.2a3.61,3.61 0 0 1 -2.44,-3.44l0,-0.65a4,4 0 0 1 8,0l0,0.65a3.61,3.61 0 0 1 -2.38,3.39l-0.56,0.2a3.31,3.31 0 0 1 -1.06,0.19zm0,-7.36a2.94,2.94 0 0 0 -2.94,2.93l0,0.65a2.53,2.53 0 0 0 1.67,2.38l0.56,0.2a2,2 0 0 0 1.41,0l0.57,-0.2a2.53,2.53 0 0 0 1.73,-2.38l0,-0.65a2.94,2.94 0 0 0 -3,-2.93z"/>
  <path id="svg_34" d="m85.69,29.29l-2.71,0l0,-1.07l2.71,0a2.83,2.83 0 0 0 2.83,-2.86l0,-3.26a2.79,2.79 0 0 0 -2.79,-2.74l-0.76,0l0,-1.12l0.76,0a3.86,3.86 0 0 1 3.86,3.86l0,3.26a3.91,3.91 0 0 1 -3.9,3.93z"/>
  <path id="svg_35" d="m84.97,19.36a2.62,2.62 0 0 1 -0.88,-0.15l-0.43,-0.16a2.93,2.93 0 0 1 -1.94,-2.75l0,-0.51a3.25,3.25 0 0 1 6.49,0l0,0.51a2.94,2.94 0 0 1 -1.93,2.75l-0.44,0.16a2.61,2.61 0 0 1 -0.87,0.15zm-0.9,-1.37l0.44,0.16a1.49,1.49 0 0 0 1,0l0.43,-0.16a1.84,1.84 0 0 0 1.23,-1.74l0,-0.51a2.18,2.18 0 0 0 -4.35,0l0,0.51a1.84,1.84 0 0 0 1.25,1.74z"/>
  <path id="svg_36" d="m69.2,29.29l-2.71,0a3.91,3.91 0 0 1 -3.9,-3.9l0,-3.29a3.86,3.86 0 0 1 3.86,-3.86l0.76,0l0,1.12l-0.76,0a2.79,2.79 0 0 0 -2.79,2.79l0,3.21a2.83,2.83 0 0 0 2.83,2.83l2.71,0l0,1.1z"/>
  <path id="svg_37" d="m67.22,19.36a2.62,2.62 0 0 1 -0.88,-0.15l-0.44,-0.16a2.94,2.94 0 0 1 -1.93,-2.75l0,-0.51a3.25,3.25 0 0 1 6.49,0l0,0.51a2.94,2.94 0 0 1 -1.93,2.75l-0.44,0.16a2.61,2.61 0 0 1 -0.87,0.15zm0,-5.74a2.17,2.17 0 0 0 -2.15,2.12l0,0.51a1.84,1.84 0 0 0 1.23,1.74l0.43,0.16a1.52,1.52 0 0 0 1,0l0.43,-0.16a1.84,1.84 0 0 0 1.23,-1.74l0,-0.51a2.18,2.18 0 0 0 -2.18,-2.17l0.01,0.05z"/>
  <path id="svg_38" d="m76.07,31.52a6.12,6.12 0 1 1 6.14,-6.16a6.13,6.13 0 0 1 -6.14,6.16zm0,-11.16a5,5 0 1 0 5.07,5a5.06,5.06 0 0 0 -5.07,-5z"/>
  <rect id="svg_39" height="5.81" width="1.07" y="22.5" x="75.55"/>
  <rect id="svg_40" height="1.07" width="5.81" y="24.87" x="73.18"/>
  <path id="svg_41" d="m77.07,189.25a14.56,14.56 0 0 1 -7.32,-2l-60.48,-34.89a14.69,14.69 0 0 1 -7.32,-12.69l0,-69.84a14.69,14.69 0 0 1 7.32,-12.69l49.43,-28.54l1.5,2.6l-49.43,28.54a11.68,11.68 0 0 0 -5.82,10.09l0,69.85a11.69,11.69 0 0 0 5.82,10.09l60.5,34.92a11.66,11.66 0 0 0 11.65,0l12,-6.94a14.71,14.71 0 0 1 12.9,-0.86l14.29,5.89l2,-15.32a14.69,14.69 0 0 1 7.19,-10.74l12,-7a11.69,11.69 0 0 0 5.82,-10.09l0,-69.8a11.68,11.68 0 0 0 -5.82,-10.09l-49.32,-28.54l1.5,-2.6l49.43,28.54a14.69,14.69 0 0 1 7.32,12.69l0,69.85a14.69,14.69 0 0 1 -7.32,12.68l-12,6.94a11.71,11.71 0 0 0 -5.72,8.55l-2.56,19.17l-17.89,-7.37a11.72,11.72 0 0 0 -10.26,0.69l-12,6.94a14.62,14.62 0 0 1 -7.41,1.97z" class="cls-3"/>
  <path id="svg_42" d="m77.07,42.36a21.18,21.18 0 1 1 21.2,-21.18a21.21,21.21 0 0 1 -21.2,21.18zm0,-39.36a18.18,18.18 0 1 0 18.2,18.18a18.2,18.2 0 0 0 -18.2,-18.18z" class="cls-3"/>
 </g>
</svg>