<svg width="151" height="195" xmlns="http://www.w3.org/2000/svg">
 <defs>
  <style>.cls-1{fill:#f46281;}.cls-2{fill:#5957ad;}.cls-3{fill:#0bd3f4;}.cls-4{fill:#19d886;}.cls-5{fill:#f4c606;}.cls-6{fill:#e053e0;}.cls-7{fill:#1f9cdb;}.cls-8{fill:#7cdb49;}.cls-9{fill:#24d3d3;}</style>
 </defs>
 <g>
  <title>background</title>
  <rect fill="none" id="canvas_background" height="197" width="153" y="-1" x="-1"/>
 </g>
 <g>
  <title>Layer 1</title>
  <path id="svg_62" d="m74.84,176.98a16.79,16.79 0 0 1 -7.88,-2l-0.34,-0.2l0,-2.25a3.39,3.39 0 0 1 2,-3.08l4.3,-2l0.57,1.24l-4.3,2a2,2 0 0 0 -1.17,1.84l0,1.45a15.53,15.53 0 0 0 13.69,0l0,-1.45a2,2 0 0 0 -1.17,-1.84l-4.27,-2l0.57,-1.24l4.28,2a3.4,3.4 0 0 1 2,3.08l0,2.25l-0.34,0.2a16.73,16.73 0 0 1 -7.94,2z"/>
  <path id="svg_63" d="m71.51,164.47l-0.26,-1.34c2,-0.39 3.43,-0.93 4,-2.31l1.26,0.53c-0.85,2.06 -2.91,2.72 -5,3.12z"/>
  <path id="svg_64" d="m77.95,163.89a4.75,4.75 0 0 1 -3.23,-1.2l0.9,-1a3.44,3.44 0 0 0 2.54,0.85l0.13,0l0,1.37l-0.34,0l0,-0.02z"/>
  <path id="svg_65" d="m74.84,169.26l-0.28,0a4.21,4.21 0 0 1 -3.86,-4.25l0,-2.56a3.78,3.78 0 0 1 3.77,-3.78l0.73,0a3.79,3.79 0 0 1 3.78,3.78l0,2.68a4.16,4.16 0 0 1 -1.31,3a4.1,4.1 0 0 1 -2.83,1.13zm-0.37,-9.23a2.42,2.42 0 0 0 -2.41,2.41l0,2.56a2.85,2.85 0 0 0 2.59,2.89a2.78,2.78 0 0 0 2.08,-0.75a2.73,2.73 0 0 0 0.88,-2l0,-2.68a2.41,2.41 0 0 0 -2.41,-2.41l-0.73,-0.02z"/>
  <path id="svg_66" d="m74.84,183.87a15.57,15.57 0 0 1 -2.66,-0.23l-0.49,-0.09l-0.38,-2.59a13.59,13.59 0 0 1 -3,-1.22l-1.71,1.27l-0.39,0.29l-0.41,-0.28a15.88,15.88 0 0 1 -2,-1.72a16.59,16.59 0 0 1 -1.72,-2l-0.28,-0.41l0.29,-0.39l1.28,-1.71a13.15,13.15 0 0 1 -1.23,-2.95l-2.59,-0.38l-0.09,-0.49a15.44,15.44 0 0 1 0,-5.31l0.09,-0.49l2.59,-0.38a13.42,13.42 0 0 1 1.23,-3l-1.57,-2.1l0.28,-0.4a15.22,15.22 0 0 1 1.72,-2a15.88,15.88 0 0 1 2,-1.72l0.41,-0.29l0.39,0.3c0.8,0.59 1.33,1 1.69,1.28a13,13 0 0 1 3,-1.23c0.11,-0.73 0.31,-2.11 0.31,-2.11l0.07,-0.49l0.49,-0.08a15.78,15.78 0 0 1 5.31,0l0.49,0.08l0.38,2.6a12.92,12.92 0 0 1 3,1.22l2.1,-1.57l0.4,0.29a15.73,15.73 0 0 1 3.76,3.76l0.29,0.4l-0.3,0.4c-0.59,0.79 -1,1.33 -1.28,1.69a12.84,12.84 0 0 1 1.23,3l2.6,0.38l0.08,0.49a15.44,15.44 0 0 1 0,5.31l-0.08,0.49l-2.6,0.38a12.67,12.67 0 0 1 -1.22,2.95l1.57,2.1l-0.29,0.41a15.11,15.11 0 0 1 -1.72,2a15.88,15.88 0 0 1 -2,1.72l-0.4,0.28l-0.4,-0.29l-1.69,-1.28a13.3,13.3 0 0 1 -3,1.23l-0.38,2.59l-0.49,0.09a15.54,15.54 0 0 1 -2.68,0.2zm-1.94,-1.5a14.75,14.75 0 0 0 3.87,0c0.37,-2.52 0.43,-2.69 0.92,-2.65a11.75,11.75 0 0 0 3.31,-1.39l0.4,-0.24l0.37,0.28l1.66,1.24a12.74,12.74 0 0 0 1.46,-1.28a14.7,14.7 0 0 0 1.28,-1.46c-1.52,-2 -1.59,-2.18 -1.22,-2.52a11.71,11.71 0 0 0 1.33,-3.23c0,-0.49 0.14,-0.55 2.65,-0.91a14,14 0 0 0 0.13,-1.94a13.7,13.7 0 0 0 -0.13,-1.93c-2.51,-0.37 -2.67,-0.42 -2.64,-0.92a11.49,11.49 0 0 0 -1.4,-3.31l-1,-1.61l1.32,0.44l0.94,-1.26a14.81,14.81 0 0 0 -2.74,-2.74c-2,1.52 -2.18,1.59 -2.51,1.22a11.84,11.84 0 0 0 -3.23,-1.33c-0.51,0 -0.55,-0.14 -0.92,-2.65a14.75,14.75 0 0 0 -3.87,0c-0.36,2.5 -0.4,2.61 -0.87,2.64a11.4,11.4 0 0 0 -3.36,1.4l-0.4,0.24l-0.37,-0.28l-1.66,-1.24a14.7,14.7 0 0 0 -1.46,1.28a12.74,12.74 0 0 0 -1.28,1.46l1.52,2l-0.24,0.4a11.63,11.63 0 0 0 -1.39,3.31c0,0.5 -0.14,0.55 -2.65,0.92a15.51,15.51 0 0 0 -0.13,1.93a15.67,15.67 0 0 0 0.13,1.94c2.51,0.36 2.67,0.42 2.65,0.91a11.81,11.81 0 0 0 1.39,3.32c0.2,0.4 0.22,0.43 -1.28,2.43a14.81,14.81 0 0 0 2.74,2.74c2,-1.51 2.11,-1.55 2.47,-1.25a11.74,11.74 0 0 0 3.38,1.38l0.45,0.11l0.38,2.55z"/>
  <path id="svg_67" d="m93.74,161.44l-1.5,-2.6l49.21,-28.41a11.67,11.67 0 0 0 5.83,-10.07l0,-69.87a11.68,11.68 0 0 0 -5.83,-10.13l-9.05,-5.23a14.73,14.73 0 0 1 -7.2,-10.74l-2,-15.32l-14.29,5.89a14.55,14.55 0 0 1 -12.9,-0.86l-15,-8.67a11.66,11.66 0 0 0 -11.64,0l-60.56,34.93a11.69,11.69 0 0 0 -5.82,10.09l0,69.91a11.68,11.68 0 0 0 5.82,10.09l49.26,28.39l-1.5,2.6l-49.21,-28.41a14.71,14.71 0 0 1 -7.37,-12.67l0,-69.87a14.71,14.71 0 0 1 7.32,-12.69l60.5,-34.92a14.67,14.67 0 0 1 14.64,0l15,8.66a11.56,11.56 0 0 0 10.26,0.68l17.88,-7.37l2.56,19.18a11.72,11.72 0 0 0 5.73,8.54l9.05,5.23a14.69,14.69 0 0 1 7.33,12.69l0,69.87a14.69,14.69 0 0 1 -7.33,12.69l-49.19,28.39z" class="cls-6"/>
  <path id="svg_68" d="m75.13,189.6a21.18,21.18 0 1 1 21.18,-21.18a21.2,21.2 0 0 1 -21.18,21.18zm0,-39.36a18.18,18.18 0 1 0 18.18,18.18a18.2,18.2 0 0 0 -18.18,-18.18z" class="cls-6"/>
 </g>
</svg>