<svg width="155" height="195" xmlns="http://www.w3.org/2000/svg">
 <defs>
  <style>.cls-1{fill:#f46281;}.cls-2{fill:#5957ad;}.cls-3{fill:#0bd3f4;}.cls-4{fill:#19d886;}.cls-5{fill:#f4c606;}.cls-6{fill:#e053e0;}.cls-7{fill:#1f9cdb;}.cls-8{fill:#7cdb49;}.cls-9{fill:#24d3d3;}</style>
 </defs>
 <g>
  <title>background</title>
  <rect fill="none" id="canvas_background" height="197" width="157" y="-1" x="-1"/>
 </g>
 <g>
  <title>Layer 1</title>
  <rect id="svg_9" height="6.97" width="1.29" y="16.62" x="76.47"/>
  <rect id="svg_10" height="1.29" width="6.97" y="19.46" x="73.63"/>
  <path id="svg_11" d="m77.12,29a8.9,8.9 0 1 1 8.9,-8.9a8.91,8.91 0 0 1 -8.9,8.9zm0,-16.51a7.61,7.61 0 1 0 7.61,7.61a7.62,7.62 0 0 0 -7.61,-7.61z"/>
  <rect id="svg_12" height="1.29" width="9.98" y="30.28" x="72.13"/>
  <rect id="svg_13" height="1.29" width="9.98" y="32.68" x="72.13"/>
  <path id="svg_14" d="m77.12,36.77a3.91,3.91 0 0 1 -2.78,-1.15l0.91,-0.91a2.64,2.64 0 0 0 3.73,0l0.92,0.91a3.92,3.92 0 0 1 -2.78,1.15z"/>
  <path id="svg_15" d="m78.15,8.9a11.92,11.92 0 0 0 -2.07,0l-0.11,-1.29a12.62,12.62 0 0 1 2.3,0l-0.12,1.29z"/>
  <path id="svg_16" d="m72.31,9.93l-0.55,-1.17c0.35,-0.16 0.7,-0.31 1.07,-0.44s0.73,-0.25 1.1,-0.35l0.33,1.25c-0.33,0.09 -0.66,0.19 -1,0.31a10.2,10.2 0 0 0 -0.95,0.4z"/>
  <path id="svg_17" d="m69.12,12.19l-0.91,-0.91c0.27,-0.27 0.55,-0.53 0.85,-0.78a10,10 0 0 1 0.91,-0.7l0.74,1.06a8.13,8.13 0 0 0 -0.82,0.63a10.13,10.13 0 0 0 -0.77,0.7z"/>
  <path id="svg_18" d="m66.9,15.36l-1.17,-0.54a11.15,11.15 0 0 1 0.53,-1c0.19,-0.33 0.4,-0.66 0.62,-1l1.05,0.75c-0.19,0.28 -0.38,0.57 -0.55,0.87a9,9 0 0 0 -0.48,0.92z"/>
  <path id="svg_19" d="m65.91,19.18l-1.29,-0.11a11.12,11.12 0 0 1 0.15,-1.14a10.3,10.3 0 0 1 0.25,-1.13l1.25,0.34c-0.09,0.33 -0.17,0.67 -0.23,1a9.06,9.06 0 0 0 -0.13,1.04z"/>
  <path id="svg_20" d="m65.07,23.41a10.84,10.84 0 0 1 -0.25,-1.13a11.12,11.12 0 0 1 -0.15,-1.14l1.29,-0.11a9.35,9.35 0 0 0 0.13,1c0.06,0.34 0.14,0.68 0.23,1l-1.25,0.38z"/>
  <path id="svg_21" d="m66.88,27.36a10.84,10.84 0 0 1 -0.62,-1a9.86,9.86 0 0 1 -0.53,-1l1.17,-0.54a9,9 0 0 0 0.48,0.92c0.17,0.3 0.36,0.59 0.55,0.87l-1.05,0.75z"/>
  <path id="svg_22" d="m69.97,30.41c-0.31,-0.22 -0.62,-0.45 -0.91,-0.7s-0.58,-0.51 -0.85,-0.78l0.91,-0.91c0.25,0.24 0.5,0.48 0.77,0.7a8.13,8.13 0 0 0 0.82,0.63l-0.74,1.06z"/>
  <path id="svg_23" d="m84.26,30.41l-0.73,-1.05a9.43,9.43 0 0 0 0.82,-0.63a10.16,10.16 0 0 0 0.76,-0.7l0.92,0.91c-0.27,0.27 -0.55,0.53 -0.85,0.78s-0.6,0.47 -0.92,0.69z"/>
  <path id="svg_24" d="m87.36,27.36l-1.06,-0.75a9.9,9.9 0 0 0 0.56,-0.87c0.18,-0.3 0.33,-0.61 0.48,-0.92l1.17,0.54c-0.16,0.35 -0.34,0.69 -0.53,1a10.84,10.84 0 0 1 -0.62,1z"/>
  <path id="svg_25" d="m89.22,23.41l-1.25,-0.34c0.09,-0.33 0.17,-0.67 0.23,-1s0.1,-0.69 0.13,-1l1.29,0.11a11.12,11.12 0 0 1 -0.15,1.14c-0.07,0.34 -0.15,0.72 -0.25,1.09z"/>
  <path id="svg_26" d="m88.33,19.18c0,-0.34 -0.07,-0.69 -0.13,-1s-0.14,-0.68 -0.23,-1l1.25,-0.34c0.1,0.37 0.18,0.74 0.25,1.13a11.12,11.12 0 0 1 0.15,1.14l-1.29,0.07z"/>
  <path id="svg_27" d="m87.34,15.36c-0.15,-0.31 -0.3,-0.62 -0.48,-0.92a9.9,9.9 0 0 0 -0.56,-0.87l1.06,-0.75c0.22,0.31 0.43,0.64 0.62,1s0.37,0.68 0.53,1l-1.17,0.54z"/>
  <path id="svg_28" d="m85.07,12.19a8.4,8.4 0 0 0 -0.76,-0.7a9.43,9.43 0 0 0 -0.82,-0.63l0.73,-1.06a10.15,10.15 0 0 1 0.92,0.7c0.3,0.25 0.58,0.51 0.85,0.78l-0.92,0.91z"/>
  <path id="svg_29" d="m81.92,9.93c-0.31,-0.15 -0.63,-0.28 -1,-0.4s-0.66,-0.22 -1,-0.31l0.33,-1.25c0.37,0.1 0.73,0.22 1.1,0.35s0.72,0.28 1.06,0.44l-0.49,1.17z"/>
  <path id="svg_30" d="m77.12,189.25a14.62,14.62 0 0 1 -7.33,-2l-60.49,-34.89a14.69,14.69 0 0 1 -7.33,-12.69l0,-69.84a14.69,14.69 0 0 1 7.33,-12.69l49.43,-28.54l1.5,2.6l-49.43,28.54a11.69,11.69 0 0 0 -5.83,10.09l0,69.85a11.7,11.7 0 0 0 5.83,10.09l60.49,34.92a11.66,11.66 0 0 0 11.65,0l12,-6.94a14.74,14.74 0 0 1 12.91,-0.86l14.29,5.89l2,-15.32a14.77,14.77 0 0 1 7.2,-10.75l12,-6.94a11.69,11.69 0 0 0 5.82,-10.09l0,-69.85a11.68,11.68 0 0 0 -5.82,-10.09l-49.33,-28.54l1.5,-2.6l49.43,28.54a14.69,14.69 0 0 1 7.32,12.69l0,69.85a14.69,14.69 0 0 1 -7.32,12.68l-12,6.94a11.71,11.71 0 0 0 -5.72,8.55l-2.57,19.17l-17.88,-7.37a11.75,11.75 0 0 0 -10.27,0.69l-12,6.94a14.58,14.58 0 0 1 -7.38,1.97z" class="cls-2"/>
  <path id="svg_31" d="m77.12,42.36a21.18,21.18 0 1 1 21.18,-21.18a21.21,21.21 0 0 1 -21.18,21.18zm0,-39.36a18.18,18.18 0 1 0 18.18,18.18a18.19,18.19 0 0 0 -18.18,-18.18z" class="cls-2"/>
 </g>
</svg>