<svg width="152" height="195" xmlns="http://www.w3.org/2000/svg">
 <defs>
  <style>.cls-1{fill:#f46281;}.cls-2{fill:#5957ad;}.cls-3{fill:#0bd3f4;}.cls-4{fill:#19d886;}.cls-5{fill:#f4c606;}.cls-6{fill:#e053e0;}.cls-7{fill:#1f9cdb;}.cls-8{fill:#7cdb49;}.cls-9{fill:#24d3d3;}</style>
 </defs>
 <g>
  <title>background</title>
  <rect fill="none" id="canvas_background" height="197" width="154" y="-1" x="-1"/>
 </g>
 <g>
  <title>Layer 1</title>
  <path id="svg_69" d="m69.65,174.29a5.19,5.19 0 1 1 5.2,-5.19a5.2,5.2 0 0 1 -5.2,5.19zm0,-9.28a4.09,4.09 0 1 0 4.1,4.09a4.1,4.1 0 0 0 -4.1,-4.09z"/>
  <rect id="svg_70" height="4.83" width="1.1" y="166.69" x="69.1"/>
  <rect id="svg_71" height="1.1" width="4.83" y="168.56" x="67.24"/>
  <rect id="svg_72" transform="rotate(-33.2599983215332 -458.8599853515625,58.02000427246099) " height="1.1" width="9.06" y="440.11" x="-73.19"/>
  <path id="svg_73" d="m83.16,163.12a2,2 0 0 1 -0.35,0a3.14,3.14 0 0 1 -1.62,-5.59a3.09,3.09 0 0 1 2.32,-0.67a3.15,3.15 0 0 1 -0.35,6.28l0,-0.02zm0,-5.2a2,2 0 0 0 -1.27,0.44a2.06,2.06 0 1 0 1.51,-0.43l-0.24,-0.01z"/>
  <rect id="svg_74" transform="rotate(-56.779998779296875 -465.1499938964844,285.3999938964844) " height="9.06" width="1.1" y="673.70999" x="-75.48999"/>
  <path id="svg_75" d="m83.15,181.36a3.15,3.15 0 0 1 -0.34,-6.29a3.16,3.16 0 0 1 3.48,2.78a3.16,3.16 0 0 1 -2.78,3.49l-0.36,0.02zm0,-5.21l-0.23,0a2.06,2.06 0 0 0 -1.05,3.65a2.1,2.1 0 0 0 1.51,0.44a2.06,2.06 0 0 0 1.81,-2.28a2,2 0 0 0 -0.76,-1.37a2,2 0 0 0 -1.27,-0.41l-0.01,-0.03z"/>
  <path id="svg_76" d="m94.71,161.44l-1.5,-2.6l49.21,-28.41a11.67,11.67 0 0 0 5.83,-10.07l0,-69.87a11.68,11.68 0 0 0 -5.83,-10.13l-9.05,-5.23a14.73,14.73 0 0 1 -7.2,-10.74l-2,-15.32l-14.29,5.89a14.77,14.77 0 0 1 -12.91,-0.86l-15,-8.66a11.66,11.66 0 0 0 -11.65,0l-60.53,34.92a11.68,11.68 0 0 0 -5.83,10.09l0,69.91a11.67,11.67 0 0 0 5.83,10.09l49.21,28.41l-1.5,2.6l-49.21,-28.41a14.69,14.69 0 0 1 -7.33,-12.69l0,-69.87a14.69,14.69 0 0 1 7.33,-12.69l60.49,-34.92a14.68,14.68 0 0 1 14.65,0l15,8.66a11.74,11.74 0 0 0 10.27,0.68l17.88,-7.37l2.57,19.18a11.68,11.68 0 0 0 5.72,8.54l9.05,5.23a14.69,14.69 0 0 1 7.33,12.69l0,69.87a14.69,14.69 0 0 1 -7.33,12.69l-49.21,28.39z" class="cls-7"/>
  <path id="svg_77" d="m76.07,189.6a21.18,21.18 0 1 1 21.18,-21.18a21.21,21.21 0 0 1 -21.18,21.18zm0,-39.36a18.18,18.18 0 1 0 18.18,18.18a18.2,18.2 0 0 0 -18.18,-18.18z" class="cls-7"/>
 </g>
</svg>