<svg width="152" height="195" xmlns="http://www.w3.org/2000/svg">
 <defs>
  <style>.cls-1{fill:#f46281;}.cls-2{fill:#5957ad;}.cls-3{fill:#0bd3f4;}.cls-4{fill:#19d886;}.cls-5{fill:#f4c606;}.cls-6{fill:#e053e0;}.cls-7{fill:#1f9cdb;}.cls-8{fill:#7cdb49;}.cls-9{fill:#24d3d3;}</style>
 </defs>
 <g>
  <title>background</title>
  <rect fill="none" id="canvas_background" height="197" width="154" y="-1" x="-1"/>
 </g>
 <g>
  <title>Layer 1</title>
  <path id="svg_92" d="m95.68,163.44l-1.5,-2.6l49.22,-28.41a11.68,11.68 0 0 0 5.82,-10.07l0,-69.87a11.69,11.69 0 0 0 -5.82,-10.13l-9.06,-5.23a14.69,14.69 0 0 1 -7.19,-10.74l-2.08,-15.28l-14.29,5.89a14.72,14.72 0 0 1 -12.9,-0.86l-15,-8.66a11.66,11.66 0 0 0 -11.65,0l-60.47,34.88a11.68,11.68 0 0 0 -5.83,10.09l0,69.91a11.67,11.67 0 0 0 5.83,10.09l49.21,28.41l-1.5,2.6l-49.21,-28.41a14.69,14.69 0 0 1 -7.33,-12.69l0,-69.87a14.69,14.69 0 0 1 7.33,-12.69l60.49,-34.92a14.68,14.68 0 0 1 14.65,0l15,8.66a11.72,11.72 0 0 0 10.26,0.68l17.89,-7.37l2.56,19.18a11.71,11.71 0 0 0 5.72,8.55l9.06,5.22a14.71,14.71 0 0 1 7.32,12.69l0,69.87a14.71,14.71 0 0 1 -7.32,12.69l-49.21,28.39z" class="cls-9"/>
  <path id="svg_93" d="m77.07,191.6a21.18,21.18 0 1 1 21.18,-21.18a21.2,21.2 0 0 1 -21.18,21.18zm0,-39.36a18.18,18.18 0 1 0 18.18,18.18a18.19,18.19 0 0 0 -18.18,-18.18z" class="cls-9"/>
  <path id="svg_94" d="m85.7,179.42l-17.24,0a2.74,2.74 0 0 1 -2.74,-2.74l0,-12.62l22.72,0l0,12.62a2.74,2.74 0 0 1 -2.74,2.74zm-19,-14.4l0,11.66a1.78,1.78 0 0 0 1.78,1.78l17.24,0a1.78,1.78 0 0 0 1.78,-1.78l0,-11.66l-20.8,0z"/>
  <path id="svg_95" d="m88.44,165.02l-22.72,0l0,-4.66l22.72,0l0,4.66zm-21.76,-1l20.8,0l0,-2.66l-20.8,0l0,2.66z"/>
  <rect id="svg_96" height="0.96" width="1.4" y="162.22" x="85.14"/>
  <rect id="svg_97" height="0.96" width="1.4" y="162.22" x="82.86"/>
  <rect id="svg_98" height="0.96" width="1.4" y="162.22" x="80.59"/>
  <path id="svg_99" d="m74.96,174.36l-2.95,0a1.81,1.81 0 0 1 -1.8,-1.8l0,-1.68a1.8,1.8 0 0 1 1.8,-1.79l2.95,0a1.8,1.8 0 0 1 1.8,1.79l-1,0a0.83,0.83 0 0 0 -0.83,-0.83l-2.95,0a0.83,0.83 0 0 0 -0.84,0.83l0,1.68a0.84,0.84 0 0 0 0.84,0.84l2.95,0a0.84,0.84 0 0 0 0.83,-0.84l1,0a1.81,1.81 0 0 1 -1.8,1.8z"/>
  <path id="svg_100" d="m82.15,174.36l-3,0a1.8,1.8 0 0 1 -1.79,-1.8l1,0a0.84,0.84 0 0 0 0.83,0.84l3,0a0.84,0.84 0 0 0 0.83,-0.84l0,-1.68a0.83,0.83 0 0 0 -0.83,-0.83l-3,0a0.83,0.83 0 0 0 -0.83,0.83l-1,0a1.79,1.79 0 0 1 1.79,-1.79l3,0a1.79,1.79 0 0 1 1.79,1.79l0,1.68a1.8,1.8 0 0 1 -1.79,1.8z"/>
  <rect id="svg_101" height="0.96" width="6.37" y="171.27" x="73.89"/>
 </g>
</svg>