<svg width="151" height="195" xmlns="http://www.w3.org/2000/svg">
 <defs>
  <style>.cls-1{fill:#f46281;}.cls-2{fill:#5957ad;}.cls-3{fill:#0bd3f4;}.cls-4{fill:#19d886;}.cls-5{fill:#f4c606;}.cls-6{fill:#e053e0;}.cls-7{fill:#1f9cdb;}.cls-8{fill:#7cdb49;}.cls-9{fill:#24d3d3;}</style>
 </defs>
 <g>
  <title>background</title>
  <rect fill="none" id="canvas_background" height="197" width="153" y="-1" x="-1"/>
 </g>
 <g>
  <title>Layer 1</title>
  <path id="svg_43" d="m71.2,31.75l-6.58,0l0,-15.27l6.58,0l0,15.27zm-5.51,-1.07l4.44,0l0,-13.13l-4.44,0l0,13.13z"/>
  <path id="svg_44" d="m83,31.75l-9.45,0l-3.07,-1.13l0.37,-1l3,1.1l9.17,0a1.5,1.5 0 0 0 1.49,-1.42l0.52,-10.14a1.52,1.52 0 0 0 -0.41,-1.11a1.5,1.5 0 0 0 -1.09,-0.46l-7.76,0l0.38,-0.77c1.35,-2.74 1.66,-3.65 1.59,-6.38a1.64,1.64 0 0 0 -1.67,-1.62a0.1,0.1 0 0 0 -0.1,0.08a10,10 0 0 1 -3,6.5l-2,2l-0.75,-0.76l2,-2a8.93,8.93 0 0 0 2.63,-5.81a1.17,1.17 0 0 1 1.22,-1.08a2.71,2.71 0 0 1 2.73,2.61a10.84,10.84 0 0 1 -1.31,6.1l6,0a2.56,2.56 0 0 1 2.58,2.71l-0.51,10.19a2.57,2.57 0 0 1 -2.56,2.39z"/>
  <rect id="svg_45" height="1.07" width="4.24" y="20.03" x="81.22"/>
  <rect id="svg_46" height="1.07" width="4.24" y="23.58" x="81.04"/>
  <rect id="svg_47" height="1.07" width="4.24" y="27.13" x="80.86"/>
  <rect id="svg_48" height="1.67" width="1.07" y="27.26" x="67.37"/>
  <path id="svg_49" d="m76.07,189.25a14.58,14.58 0 0 1 -7.32,-2l-60.51,-34.89a14.71,14.71 0 0 1 -7.32,-12.69l0,-69.84a14.71,14.71 0 0 1 7.32,-12.69l49.43,-28.54l1.5,2.6l-49.43,28.54a11.68,11.68 0 0 0 -5.82,10.09l0,69.85a11.69,11.69 0 0 0 5.82,10.09l60.5,34.92a11.66,11.66 0 0 0 11.65,0l12,-6.94a14.72,14.72 0 0 1 12.9,-0.86l14.28,5.89l2.05,-15.32a14.69,14.69 0 0 1 7.19,-10.74l12,-7a11.7,11.7 0 0 0 5.83,-10.09l0,-69.8a11.69,11.69 0 0 0 -5.83,-10.09l-49.36,-28.54l1.5,-2.6l49.43,28.54a14.69,14.69 0 0 1 7.33,12.69l0,69.85a14.69,14.69 0 0 1 -7.33,12.68l-12,6.94a11.74,11.74 0 0 0 -5.72,8.55l-2.56,19.17l-17.89,-7.37a11.72,11.72 0 0 0 -10.26,0.69l-12,6.94a14.62,14.62 0 0 1 -7.38,1.97z" class="cls-4"/>
  <path id="svg_50" d="m76.07,42.36a21.18,21.18 0 1 1 21.18,-21.18a21.21,21.21 0 0 1 -21.18,21.18zm0,-39.36a18.18,18.18 0 1 0 18.18,18.18a18.2,18.2 0 0 0 -18.18,-18.18z" class="cls-4"/>
 </g>
</svg>