<svg width="150" height="190" xmlns="http://www.w3.org/2000/svg">
	<defs>
		<style>
        .cls-1 {
    	fill: #f46281;
        }
        .cls-2 {
        fill: #5957ad;
        }
        .cls-3 {
        fill: #0bd3f4;
        }
        .cls-4 {
        fill: #19d886;
        }
        .cls-5 {
        fill: #f4c606;
        }
        .cls-6 {
        fill: #e053e0;
        }
        .cls-7 {
        fill: #1f9cdb;
        }
        .cls-8 {
        fill: #7cdb49;
        }
        .cls-9 {
        fill: #24d3d3;
        }
		</style>
	</defs>
	<g>
		<title>background</title>
		<rect fill="none" id="canvas_background" height="192" width="152" y="-1" x="-1" />
	</g>
	<g>
		<title>Layer 1</title>
		<path id="svg_1" d="m75.15,189.25a14.59,14.59 0 0 1 -7.33,-2l-60.49,-34.89a14.69,14.69 0 0 1 -7.33,-12.69l0,-69.84a14.69,14.69 0 0 1 7.33,-12.69l49.42,-28.54l1.5,2.6l-49.42,28.54a11.67,11.67 0 0 0 -5.83,10.09l0,69.85a11.68,11.68 0 0 0 5.83,10.09l60.49,34.92a11.66,11.66 0 0 0 11.65,0l12,-6.94a14.74,14.74 0 0 1 12.91,-0.86l14.28,5.89l2,-15.32a14.77,14.77 0 0 1 7.2,-10.75l12,-6.94a11.69,11.69 0 0 0 5.82,-10.09l0,-69.85a11.68,11.68 0 0 0 -5.82,-10.09l-49.29,-28.54l1.5,-2.6l49.43,28.54a14.71,14.71 0 0 1 7.32,12.69l0,69.85a14.71,14.71 0 0 1 -7.35,12.68l-12,6.94a11.75,11.75 0 0 0 -5.73,8.55l-2.56,19.17l-17.89,-7.37a11.73,11.73 0 0 0 -10.26,0.69l-12,6.94a14.58,14.58 0 0 1 -7.38,1.97z" class="cls-1" />
		<path id="svg_2" d="m76.34,25.69l-11.07,0l0,-11.84l11.07,0l0,11.84zm-9.88,-1.19l8.68,0l0,-9.45l-8.68,0l0,9.45z" />
		<path id="svg_3" d="m82.75,30.58l-7.61,-5.17l0,-11.28l7.61,-5.17l0,21.62zm-6.41,-5.8l5.21,3.58l0,-17.13l-5.21,3.53l0,10.02z" />
		<path id="svg_4" d="m66.46,23.47l-4.55,0l0,-7.4l4.55,0l0,7.4zm-3.39,-1.19l2.17,0l0,-5l-2.17,0l0,5z" />
		<polygon id="svg_5" points="72.71 35.62 70.53 35.62 65.33 25.37 66.4 24.83 71.26 34.42 71.51 34.42 71.51 25.1 72.71 25.1 72.71 35.62" />
		<path id="svg_6" d="m84.86,23.45l-0.85,-0.84a4,4 0 0 0 0,-5.68l0.85,-0.84a5.21,5.21 0 0 1 0,7.36z" />
		<path id="svg_7" d="m86.79,25.36l-0.84,-0.85a6.76,6.76 0 0 0 0,-9.54l0.84,-0.85a7.94,7.94 0 0 1 0,11.24z" />
		<path id="svg_8" d="m75.15,42.36a21.18,21.18 0 1 1 21.18,-21.18a21.21,21.21 0 0 1 -21.18,21.18zm0,-39.36a18.18,18.18 0 1 0 18.18,18.18a18.19,18.19 0 0 0 -18.18,-18.18z" class="cls-1" />
	</g>
</svg>